<?xml version="1.0" encoding="utf-8"?>
<!-- Generator: Adobe Illustrator 26.2.1, SVG Export Plug-In . SVG Version: 6.00 Build 0)  -->
<svg version="1.1" xmlns="http://www.w3.org/2000/svg" xmlns:xlink="http://www.w3.org/1999/xlink" x="0px" y="0px"
	 viewBox="0 0 96.89 85.53" style="enable-background:new 0 0 96.89 85.53;" xml:space="preserve">
<style type="text/css">
	.st0{display:none;}
	.st1{display:inline;fill:#FFFFFF;stroke:#000000;stroke-width:2;stroke-miterlimit:10;}
	.st2{fill:none;stroke:#000000;stroke-miterlimit:10;}
</style>
<g id="레이어_1" class="st0">
	<path class="st1" d="M163.53,48.01"/>
</g>
<g id="레이어_2">
	<g>
		<g>
			<path d="M12.39,82.64c2.93-6.38,5.67-12.87,8.88-19.12c2.62-5.09,5.89-9.75,9.39-14.26c1.84-2.37,3.78-4.7,5.98-6.74
				c0.8-0.74,1.48-1.31,2.36-1.86c0.23-0.14,0.46-0.28,0.69-0.4c0.01-0.01,0.77-0.36,0.31-0.17c0.22-0.09,0.44-0.15,0.66-0.22
				c0.14-0.04,0.29-0.07,0.43-0.1c-0.31,0.03-0.32,0.03-0.03,0.01c0.21-0.01,0.41-0.01,0.62,0.01c-0.65-0.06,0.03,0,0.13,0.07
				c0.28,0.2,0.54,0.4,0.76,0.68c0.9,1.11,1.58,2.5,2.2,3.78c1.19,2.48,2,5.14,2.66,7.8c1.28,5.15,1.88,10.24,2.16,15.54
				c0.09,1.72,2.12,3.34,3.76,2.16c6.41-4.62,12.98-9.33,20.58-11.78c-1.03-0.58-2.05-1.16-3.08-1.75
				c2.65,8.47,4.66,17.09,6.5,25.77c0.39,1.86,2.92,2.39,4.18,1.1c2.81-2.87,5.18-6.27,7.21-9.72c4-6.79,6.6-14.4,7.16-22.28
				c1.28-18.17-9.43-35.16-25.31-43.51c-7.5-3.94-16.07-6.11-24.57-5.69c-8.51,0.43-16.8,3.34-23.85,8.1
				C11.09,17.53,3.02,29.53,1.31,42.89c-1.88,14.67,4.53,29.58,15.66,39.14c0.4,0.35,0.81,0.68,1.23,1.01c1.06,0.83,2.5,1.04,3.54,0
				c0.86-0.86,1.07-2.7,0-3.54c-1.11-0.86-2.16-1.8-3.16-2.78c-1.82-1.77-3.56-3.79-4.85-5.57c-4.36-6.03-7.21-13.12-7.67-20.58
				c-0.83-13.48,5.76-26.03,16-34.27c0.07-0.05,0.65-0.51,0.4-0.32c-0.22,0.17,0.44-0.33,0.56-0.42c0.56-0.41,1.12-0.81,1.7-1.2
				c1.29-0.87,2.61-1.67,3.98-2.41c3.37-1.83,6.96-3.2,10.69-4.07c7.91-1.83,16.12-1,23.69,1.82c15,5.59,26.71,19.46,27.85,35.68
				c0.53,7.58-1.23,15.21-4.52,21.9c-1.29,2.63-2.8,5.15-4.48,7.54c-0.33,0.47-0.67,0.94-1.02,1.4c-0.1,0.13-0.57,0.73-0.17,0.22
				c-0.16,0.2-0.31,0.4-0.47,0.6c-0.48,0.6-0.98,1.19-1.49,1.76c-0.25,0.28-0.5,0.55-0.75,0.81c1.39,0.37,2.79,0.74,4.18,1.1
				c-1.84-8.68-3.85-17.3-6.5-25.77c-0.39-1.25-1.75-2.17-3.08-1.75c-8.04,2.6-14.98,7.39-21.77,12.29
				c1.25,0.72,2.51,1.44,3.76,2.16c-0.27-5.13-0.86-10.28-1.98-15.3c-0.69-3.13-1.63-6.18-2.88-9.12c-1.17-2.75-2.8-6.39-5.62-7.79
				c-5.4-2.68-10.89,3.1-14.09,6.75c-2.28,2.61-4.37,5.39-6.4,8.19c-1.78,2.45-3.52,4.91-5.02,7.55
				c-4.04,7.12-7.14,14.77-10.54,22.2c-0.56,1.23-0.35,2.69,0.9,3.42C10.05,84.17,11.83,83.87,12.39,82.64L12.39,82.64z"/>
		</g>
	</g>
	<g>
		<g>
			<path d="M38.42,80.56c0-0.6,0-1.19,0-1.79c0-0.63,0-1.25,0-1.88c0-0.64-0.28-1.31-0.73-1.77c-0.43-0.43-1.15-0.76-1.77-0.73
				c-0.65,0.03-1.32,0.24-1.77,0.73c-0.45,0.49-0.73,1.09-0.73,1.77c0,1.14,0,2.28,0,3.41c0,0.09,0,0.17,0,0.26
				c0,0.64,0.28,1.31,0.73,1.77c0.43,0.43,1.15,0.76,1.77,0.73c0.65-0.03,1.32-0.24,1.77-0.73C38.14,81.84,38.42,81.24,38.42,80.56
				L38.42,80.56z"/>
		</g>
	</g>
	<path class="st2" d="M85.21,71.41"/>
	<g>
		<g>
			<path d="M63.7,80.68c0-1.3,0-2.61,0-3.91c0-0.64-0.28-1.31-0.73-1.77c-0.43-0.43-1.15-0.76-1.77-0.73
				c-0.65,0.03-1.32,0.24-1.77,0.73c-0.45,0.49-0.73,1.09-0.73,1.77c0,1.3,0,2.61,0,3.91c0,0.64,0.28,1.31,0.73,1.77
				c0.43,0.43,1.15,0.76,1.77,0.73c0.65-0.03,1.32-0.24,1.77-0.73C63.42,81.96,63.7,81.36,63.7,80.68L63.7,80.68z"/>
		</g>
	</g>
</g>
</svg>
